<svg xmlns="http://www.w3.org/2000/svg" width="1280" height="720" viewBox="0 0 1280 720" fill="none">
  <defs>
    <linearGradient id="bg" x1="120" y1="40" x2="1160" y2="680" gradientUnits="userSpaceOnUse">
      <stop stop-color="#06111F"/>
      <stop offset="1" stop-color="#0E1D33"/>
    </linearGradient>
    <linearGradient id="card" x1="220" y1="120" x2="1060" y2="620" gradientUnits="userSpaceOnUse">
      <stop stop-color="#13243D"/>
      <stop offset="1" stop-color="#0B1628"/>
    </linearGradient>
    <linearGradient id="accent" x1="300" y1="220" x2="980" y2="500" gradientUnits="userSpaceOnUse">
      <stop stop-color="#00C2FF"/>
      <stop offset="1" stop-color="#57E5FF"/>
    </linearGradient>
  </defs>
  <rect width="1280" height="720" rx="28" fill="url(#bg)"/>
  <rect x="122" y="92" width="1036" height="536" rx="24" fill="url(#card)" stroke="#203655" stroke-width="2"/>
  <rect x="168" y="146" width="944" height="54" rx="14" fill="#09101C" stroke="#203655" stroke-width="1.5"/>
  <circle cx="204" cy="173" r="7" fill="#F87171"/>
  <circle cx="230" cy="173" r="7" fill="#FBBF24"/>
  <circle cx="256" cy="173" r="7" fill="#34D399"/>
  <text x="294" y="182" fill="#8FA6C8" font-family="SFMono-Regular,Consolas,Menlo,monospace" font-size="18">curl -fsSL https://vikiclow.ai/install.sh | bash</text>
  <rect x="168" y="230" width="944" height="310" rx="22" fill="#07111F" stroke="#203655" stroke-width="1.5"/>
  <path d="M360 440V276L505 384L650 276V440" stroke="url(#accent)" stroke-width="20" stroke-linecap="round" stroke-linejoin="round"/>
  <path d="M650 440V296H742C790 296 826 334 826 382C826 430 790 468 742 468H650" stroke="url(#accent)" stroke-width="20" stroke-linecap="round" stroke-linejoin="round"/>
  <path d="M870 276V440" stroke="url(#accent)" stroke-width="20" stroke-linecap="round"/>
  <path d="M870 276H976" stroke="url(#accent)" stroke-width="20" stroke-linecap="round"/>
  <path d="M870 358H944" stroke="url(#accent)" stroke-width="20" stroke-linecap="round"/>
  <path d="M870 440H980" stroke="url(#accent)" stroke-width="20" stroke-linecap="round"/>
  <text x="362" y="540" fill="#E6F1FF" font-family="Inter,system-ui,sans-serif" font-size="34" font-weight="700">VikiClow Installer</text>
  <text x="362" y="582" fill="#8FA6C8" font-family="Inter,system-ui,sans-serif" font-size="21">Mission-ready automation, unmistakably VikiClow.</text>
</svg>
